STARTFONT 2.3
FONT -FontForge-Permanent Marker-Book-R-Normal--20-200-72-72-P-116-ISO10646-1
SIZE 20 72 72  2
FONTBOUNDINGBOX 31 29 -6 -7
COMMENT "Generated by fontforge, http://fontforge.sourceforge.net"
COMMENT "Copyright (c) 2010 by Font Diner, Inc. All rights reserved."
STARTPROPERTIES 40
FOUNDRY "FontForge"
FAMILY_NAME "Permanent Marker"
WEIGHT_NAME "Book"
SLANT "R"
SETWIDTH_NAME "Normal"
ADD_STYLE_NAME ""
PIXEL_SIZE 20
POINT_SIZE 200
RESOLUTION_X 72
RESOLUTION_Y 72
SPACING "P"
AVERAGE_WIDTH 116
CHARSET_REGISTRY "ISO10646"
CHARSET_ENCODING "1"
FONTNAME_REGISTRY ""
CHARSET_COLLECTIONS "ISO10646-1"
BITS_PER_PIXEL 2
FONT_NAME "PermanentMarker-Regular"
FACE_NAME "Permanent Marker Regular"
COPYRIGHT "Copyright (c) 2010 by Font Diner, Inc. All rights reserved."
FONT_VERSION "1.001"
FONT_ASCENT 16
FONT_DESCENT 4
UNDERLINE_POSITION -2
UNDERLINE_THICKNESS 1
X_HEIGHT 11
CAP_HEIGHT 14
RAW_ASCENT 799
RAW_DESCENT 200
NORM_SPACE 7
RELATIVE_WEIGHT 40
RELATIVE_SETWIDTH 50
SUPERSCRIPT_X 0
SUPERSCRIPT_Y 9
SUPERSCRIPT_SIZE 12
SUBSCRIPT_X 0
SUBSCRIPT_Y 2
SUBSCRIPT_SIZE 12
AVG_LOWERCASE_WIDTH 114
AVG_UPPERCASE_WIDTH 136
ENDPROPERTIES
CHARS 230
STARTCHAR space
ENCODING 32
SWIDTH 370 0
DWIDTH 7 0
BBX 1 1 0 0
BITMAP
00
ENDCHAR
STARTCHAR exclam
ENCODING 33
SWIDTH 260 0
DWIDTH 5 0
BBX 6 16 0 -1
BITMAP
0180
03D0
07D0
0BD0
0BC0
0FC0
1F80
1F80
2F40
2F00
0500
0000
7900
FD00
BC00
1400
ENDCHAR
STARTCHAR quotedbl
ENCODING 34
SWIDTH 492 0
DWIDTH 10 0
BBX 10 10 1 5
BITMAP
0A0640
0FC7D0
1FCBD0
2F4FC0
3F1F80
7F2F40
7E3F00
7D3E00
3C3E00
141800
ENDCHAR
STARTCHAR numbersign
ENCODING 35
SWIDTH 703 0
DWIDTH 14 0
BBX 15 15 0 0
BITMAP
00040100
001D0B00
002E0F40
003E1F80
05BFBF90
1FFFFFF4
1FFFFE90
06F4BC00
02F5FD00
7FFFFF80
7FFFFF40
2FD7F000
1F8BD000
2F4BC000
1E078000
ENDCHAR
STARTCHAR dollar
ENCODING 36
SWIDTH 493 0
DWIDTH 10 0
BBX 11 16 0 -1
BITMAP
000500
000F00
001F00
006FF4
0BFFF8
3FFAA8
7FE000
2FFC00
016E00
000F00
007F00
1BFD00
2FF000
1BD000
07C000
014000
ENDCHAR
STARTCHAR percent
ENCODING 37
SWIDTH 643 0
DWIDTH 13 0
BBX 12 14 1 0
BITMAP
078007
1FC01F
7FD07E
FAE1F8
FFE7E0
BE5F80
007E00
01F850
07E2E0
2F8BF0
7E2EB4
F83EF8
F43FF4
A01A40
ENDCHAR
STARTCHAR ampersand
ENCODING 38
SWIDTH 599 0
DWIDTH 12 0
BBX 12 10 0 1
BITMAP
000A00
001F40
1A6F40
3FFF40
FFFFF8
BFFFFE
2FFE54
00FD00
00FC00
00B800
ENDCHAR
STARTCHAR quotesingle
ENCODING 39
SWIDTH 265 0
DWIDTH 5 0
BBX 5 10 1 5
BITMAP
0A00
0FC0
1FC0
2F40
3F00
7F00
7E00
7D00
3C00
1400
ENDCHAR
STARTCHAR parenleft
ENCODING 40
SWIDTH 361 0
DWIDTH 7 0
BBX 10 21 0 -4
BITMAP
000190
0007D0
001FD0
007FC0
01FE00
03F800
0BF000
0FD000
1F8000
2F8000
2F4000
7F0000
7E0000
7E0000
7E0000
7F0000
3F0000
3F4000
1F4000
074000
014000
ENDCHAR
STARTCHAR parenright
ENCODING 41
SWIDTH 361 0
DWIDTH 7 0
BBX 10 21 -3 -4
BITMAP
001800
001E00
001F80
001FC0
000FD0
000FD0
000BD0
000BD0
000BD0
000FC0
001F80
002F80
003F40
00BF00
01FD00
03F800
1FF400
3FD000
7F4000
7C0000
200000
ENDCHAR
STARTCHAR asterisk
ENCODING 42
SWIDTH 673 0
DWIDTH 13 0
BBX 13 10 1 5
BITMAP
00501400
02F0F800
02FBF000
01FFD000
6AFFFF40
7FFFFFC0
2EFFE400
01FFE000
03F2F000
0BD0E000
ENDCHAR
STARTCHAR plus
ENCODING 43
SWIDTH 579 0
DWIDTH 12 0
BBX 11 11 0 0
BITMAP
001400
007D00
00BD00
00FD00
5AFE90
BFFFF4
7FFFA4
16F800
03F400
03F000
019000
ENDCHAR
STARTCHAR comma
ENCODING 44
SWIDTH 204 0
DWIDTH 4 0
BBX 5 7 -2 -4
BITMAP
1900
2F40
3F40
7F00
BE00
FC00
1000
ENDCHAR
STARTCHAR hyphen
ENCODING 45
SWIDTH 609 0
DWIDTH 12 0
BBX 11 4 0 3
BITMAP
16AA90
7FFFF8
7FFFA4
140000
ENDCHAR
STARTCHAR period
ENCODING 46
SWIDTH 228 0
DWIDTH 5 0
BBX 4 4 -1 -1
BITMAP
2E
7F
7E
14
ENDCHAR
STARTCHAR slash
ENCODING 47
SWIDTH 401 0
DWIDTH 8 0
BBX 11 14 -1 0
BITMAP
000074
0000F4
0002F4
000BE0
001F80
007F00
00FC00
02F400
0BD000
2F8000
7E0000
BD0000
BC0000
780000
ENDCHAR
STARTCHAR zero
ENCODING 48
SWIDTH 686 0
DWIDTH 14 0
BBX 13 16 0 -1
BITMAP
0001E000
000BF400
002FF800
00BFF800
02FFFC00
07FEBD00
0FF47E00
2FD02F40
3F801F80
7F001F80
BE007FC0
BE56FF80
BFFFFF40
3FFFFC00
1FFF9000
01540000
ENDCHAR
STARTCHAR one
ENCODING 49
SWIDTH 322 0
DWIDTH 6 0
BBX 6 15 0 0
BITMAP
0800
1F00
1FC0
0FD0
0BD0
0BD0
0BD0
0FD0
1FC0
2FC0
3F80
7F40
7F00
7E00
3D00
ENDCHAR
STARTCHAR two
ENCODING 50
SWIDTH 650 0
DWIDTH 13 0
BBX 13 15 1 0
BITMAP
05550000
7FFF8000
BFFFE000
7FFFF800
1907FC00
001FF800
00BFE000
02FF8000
0BFD0000
2FF40000
7FC05A40
BFAFFF80
BFFFFFC0
BFFFFE40
2FE94000
ENDCHAR
STARTCHAR three
ENCODING 51
SWIDTH 561 0
DWIDTH 11 0
BBX 11 15 0 0
BITMAP
000540
1BFFF0
FFFFF8
FFFFFC
FFFFF4
57FF90
0BFE00
0BFF80
07FFE0
006FF0
0007F4
2ABFF4
7FFFE0
BFFF40
6AA400
ENDCHAR
STARTCHAR four
ENCODING 52
SWIDTH 582 0
DWIDTH 12 0
BBX 11 16 1 -1
BITMAP
000A00
000F40
A00F80
F41F80
F81F40
BC1FA0
BFFFF4
7FFFF4
3FFF90
06FD00
00FC00
00F800
01F400
00FC00
00BD00
002400
ENDCHAR
STARTCHAR five
ENCODING 53
SWIDTH 580 0
DWIDTH 12 0
BBX 12 15 1 0
BITMAP
004000
06E004
1FFFFE
7FFFFF
FFFFFF
FFF950
FFD000
7FF800
1BFE00
01BF40
001F80
AABFC0
FFFF80
7FFF00
1AA400
ENDCHAR
STARTCHAR six
ENCODING 54
SWIDTH 500 0
DWIDTH 10 0
BBX 11 16 -1 -1
BITMAP
000500
002F40
00BF80
01FF80
02F800
07F000
0BE000
0FC140
1F9FD0
2F7FF4
3FBFF4
3EFFF4
7FFFE0
3FFF80
1FE800
010000
ENDCHAR
STARTCHAR seven
ENCODING 55
SWIDTH 576 0
DWIDTH 12 0
BBX 13 15 0 0
BITMAP
15500000
7FFE4000
BFFFC000
BFFFE000
145BF000
0003F000
0003F000
05AFFF40
1FFFFF40
2FFFF900
1FFF0000
00FD0000
01F80000
02F40000
01E00000
ENDCHAR
STARTCHAR eight
ENCODING 56
SWIDTH 537 0
DWIDTH 11 0
BBX 11 16 1 -1
BITMAP
019040
1FF8F0
3FFDF4
BFBDF8
BD2FF8
BD1FF4
7FFFD0
2FFE00
2FF400
7FF800
7DBC00
7D7D00
7FFD00
2FFC00
0BF400
004000
ENDCHAR
STARTCHAR nine
ENCODING 57
SWIDTH 529 0
DWIDTH 11 0
BBX 10 16 1 -1
BITMAP
006400
06FE00
1FFF40
7FEFC0
BE5FC0
FFFFE0
FFFFD0
BFFF80
155F40
002F00
003E00
003E00
007D00
007C00
007800
001000
ENDCHAR
STARTCHAR colon
ENCODING 58
SWIDTH 241 0
DWIDTH 5 0
BBX 5 10 -1 -1
BITMAP
0A00
1F80
1FC0
0B40
0000
0000
2E00
7F00
7E00
1400
ENDCHAR
STARTCHAR semicolon
ENCODING 59
SWIDTH 245 0
DWIDTH 5 0
BBX 6 13 -2 -4
BITMAP
0180
07F0
07F0
02D0
0000
0000
0A00
0FC0
1FC0
2F80
7F00
7E00
0400
ENDCHAR
STARTCHAR less
ENCODING 60
SWIDTH 625 0
DWIDTH 13 0
BBX 13 10 0 0
BITMAP
00001500
0001BF40
001BFE00
16FFE400
BFFE4000
BFE00000
2FFE4000
02FFE000
001BF400
00005000
ENDCHAR
STARTCHAR equal
ENCODING 61
SWIDTH 586 0
DWIDTH 12 0
BBX 11 7 0 2
BITMAP
1ABFE4
3FFFFC
3FAA94
000000
6ABFD0
BFFFE0
BAA540
ENDCHAR
STARTCHAR greater
ENCODING 62
SWIDTH 634 0
DWIDTH 13 0
BBX 13 10 -1 0
BITMAP
05000000
0FE90000
03FF9000
00BFFD00
0007FF40
006FFF40
1BFFE400
BFF90000
BF400000
14000000
ENDCHAR
STARTCHAR question
ENCODING 63
SWIDTH 556 0
DWIDTH 11 0
BBX 12 16 1 -1
BITMAP
06A500
2FFFE8
7FFFFD
3FFFFD
0007FC
001FF8
00BFE0
03FF40
0FF800
1F8000
0A0000
000000
B80000
FD0000
BD0000
200000
ENDCHAR
STARTCHAR at
ENCODING 64
SWIDTH 732 0
DWIDTH 15 0
BBX 15 16 0 -1
BITMAP
0002A000
0003FD00
000BFF00
002F9F80
01FE07D0
07F46AE0
2FD7F8F0
7F6FF4F4
FDBDB4F0
F8F9F5E0
F4BFFF80
F02FE900
BE400000
2FFFFE00
06FFFF00
00155400
ENDCHAR
STARTCHAR A
ENCODING 65
SWIDTH 702 0
DWIDTH 14 0
BBX 15 15 -1 0
BITMAP
00004000
0000F800
0002FD00
003FFE00
00BFFE00
00FFFF00
01FE7F00
03FC3F90
07F97FF8
0FFFFFF8
1FEFFFE0
2F8FAFD0
7F401FE0
7F002FD0
2D001F40
ENDCHAR
STARTCHAR B
ENCODING 66
SWIDTH 686 0
DWIDTH 14 0
BBX 14 16 -1 -1
BITMAP
0016A400
06FFFF40
3FFFFFC0
7FF96FD0
2FF07FD0
05FFFF80
00FFFE00
01FFFD00
02FFFF80
03F803E0
07F40BF0
0BF1BFF0
0FFFFFD0
0FFFFE40
07FFE400
01150000
ENDCHAR
STARTCHAR C
ENCODING 67
SWIDTH 611 0
DWIDTH 12 0
BBX 12 15 0 0
BITMAP
000010
0002F8
001FFE
01FFFE
07FFF8
1FFE40
7FF400
BF8000
FE0000
FC0000
BC0000
7FA950
2FFFF8
0BFFFD
01AFF4
ENDCHAR
STARTCHAR D
ENCODING 68
SWIDTH 588 0
DWIDTH 12 0
BBX 12 15 0 0
BITMAP
140000
2F4000
2FF800
2FFF40
2E7FD0
2F06F4
1F00BC
1F003D
2F00BD
3F07FD
7E6FF8
BFFFD0
BFFE00
BFE400
3E0000
ENDCHAR
STARTCHAR E
ENCODING 69
SWIDTH 626 0
DWIDTH 13 0
BBX 13 15 0 0
BITMAP
00000500
005BFF80
0BFFFFC0
2FFFFE00
1FFE4000
0FE00000
0BFFE000
1FFFF800
2FFFE400
7FA54000
BF000000
BE55B800
BFFFFE00
7FFFFD00
2FFF9000
ENDCHAR
STARTCHAR F
ENCODING 70
SWIDTH 575 0
DWIDTH 12 0
BBX 15 15 -1 0
BITMAP
00001690
001AFFF8
06FFFFFC
0BFFE954
0BFE0000
02FD0000
01F80000
16F9A900
7FFFFE00
7FFFFD00
2FFE5000
1FC00000
2F800000
1F400000
0F000000
ENDCHAR
STARTCHAR G
ENCODING 71
SWIDTH 789 0
DWIDTH 16 0
BBX 17 15 0 0
BITMAP
0000140000
0000BE0000
0007FF4000
002FFF4000
00FFF80000
03FF800000
0FFD060000
2FF41FE000
7FC00FFD00
FF400BFF40
FD005BFF80
BE9BFFFE00
7FFFFFF800
3FFFFE4000
0BFA400000
ENDCHAR
STARTCHAR H
ENCODING 72
SWIDTH 695 0
DWIDTH 14 0
BBX 14 16 0 -1
BITMAP
00000200
06000B40
0B400B80
0FC00FD0
1FD00FD0
1FD01FD0
1FC01FD0
2FC06FD0
2FEBFFC0
7FFFFF80
7FFFFF40
BFF9BF00
FF80BF00
FF00BE00
7D002800
10000000
ENDCHAR
STARTCHAR I
ENCODING 73
SWIDTH 515 0
DWIDTH 10 0
BBX 14 15 -1 0
BITMAP
00156940
02FFFFD0
02FFFFF0
01FFF940
000BD000
000BD000
000FC000
001F8000
003F4000
007F0000
00BE0000
01FE4000
7FFFE000
BFFFE000
7FA94000
ENDCHAR
STARTCHAR J
ENCODING 74
SWIDTH 668 0
DWIDTH 13 0
BBX 17 15 -1 0
BITMAP
0000051000
01AFFFFF00
0BFFFFFF80
0BFFFFFF80
02E53F4000
00003F0000
00007F0000
0000BE0000
0000FD0000
0001FC0000
0002F80000
295BF40000
7FFFF00000
3FFFD00000
1ABA000000
ENDCHAR
STARTCHAR K
ENCODING 75
SWIDTH 776 0
DWIDTH 16 0
BBX 16 15 0 0
BITMAP
00500000
00F80050
02FD07F4
03FC2FFC
07F8BFF4
0BF7FF90
0FFFFD00
2FFFF400
3FFFC000
3FFFD000
7FFFFA54
BFE2FFFE
BF807FFE
7F0006F8
3D000000
ENDCHAR
STARTCHAR L
ENCODING 76
SWIDTH 632 0
DWIDTH 13 0
BBX 13 16 0 -1
BITMAP
01400000
02F40000
03F80000
07F40000
0BF00000
0FE00000
1FD00000
2FC00000
3F800000
7F400000
BF000000
BFAFF800
BFFFFF00
7FFFFF40
2FE95500
01000000
ENDCHAR
STARTCHAR M
ENCODING 77
SWIDTH 973 0
DWIDTH 19 0
BBX 20 16 0 -1
BITMAP
0018000000
007E4001E0
00BF8007F8
01FFD01FFD
03FFD07FFC
07FFD2FFFC
0FFFFFFFF8
1FFFFFFFF8
2FEFFFE3F4
7F8BFE47F4
BF815007F4
FF00000BF0
BE00000BE0
BC000007C0
7800000240
1000000000
ENDCHAR
STARTCHAR N
ENCODING 78
SWIDTH 684 0
DWIDTH 14 0
BBX 14 15 0 0
BITMAP
00000100
00B803D0
00FE07F0
02FE0BF0
03FE0FE0
0BFD0FD0
0FFD1FC0
2FFD2FC0
3FFD3F80
7FFDBF80
FFFFFF40
FF6FFF00
FE1FFD00
BD07F400
28019000
ENDCHAR
STARTCHAR O
ENCODING 79
SWIDTH 744 0
DWIDTH 15 0
BBX 14 16 0 -1
BITMAP
00006400
0002FD00
000BFE00
007FFE00
01FFFF00
07FFAF40
0FF81FC0
2FE00BD0
3F8003E0
BF0003F0
BE001FF0
BE56FFF0
BFFFFFD0
3FFFFE00
0BFF9000
00100000
ENDCHAR
STARTCHAR P
ENCODING 80
SWIDTH 639 0
DWIDTH 13 0
BBX 14 16 0 -1
BITMAP
0006A400
007FFE00
01FFFF80
02FFFFC0
03F96FD0
0BE06FD0
2FEBFFD0
3FFFFF80
7FFFFE00
3FFF9000
2F900000
2F800000
3F800000
3F400000
2F000000
04000000
ENDCHAR
STARTCHAR Q
ENCODING 81
SWIDTH 744 0
DWIDTH 15 0
BBX 15 16 0 -1
BITMAP
00019000
0002FD00
0007FF00
001FFF80
007FFFD0
02FF87E0
0BFD02F4
2FF501F4
7FC7E3F4
FF02FFF4
FD01FFE0
FC5BFFC0
BFFFFF80
7FFFFFC0
1FFA4BD0
010007C0
ENDCHAR
STARTCHAR R
ENCODING 82
SWIDTH 646 0
DWIDTH 13 0
BBX 13 16 0 -1
BITMAP
00060000
001FD000
007FF400
00FFFC00
0BFEFD00
1FF4BE00
2FD1FE00
2FEFFD00
3FFFF800
7FFF8000
7FF80000
BFFE4000
BEFFFA40
7D2FFF80
7806FFC0
00001A40
ENDCHAR
STARTCHAR S
ENCODING 83
SWIDTH 576 0
DWIDTH 12 0
BBX 14 16 0 -1
BITMAP
00016900
006FFF80
07FFFFD0
3FFFFFE0
BFF40000
BFF90000
BFFF4000
1AFFC000
0007E000
0002F000
000BF000
01BFD000
2FFF8000
3FFD0000
2FE00000
04000000
ENDCHAR
STARTCHAR T
ENCODING 84
SWIDTH 607 0
DWIDTH 12 0
BBX 16 16 0 -1
BITMAP
000515A4
6AAFFFFC
FFFFFFFE
BFFFFEA4
6ABFC000
003F4000
007F0000
00FE0000
01FD0000
02F80000
03F40000
03F00000
03E00000
02F40000
01F40000
00100000
ENDCHAR
STARTCHAR U
ENCODING 85
SWIDTH 695 0
DWIDTH 14 0
BBX 14 15 1 0
BITMAP
00000100
00000740
24000B80
7C000BC0
BE000FD0
BF001FD0
FE002FC0
FD007F80
FD01FF00
FD0BFE00
FFBFF800
BFFFE000
7FFF8000
2FFE0000
0AA00000
ENDCHAR
STARTCHAR V
ENCODING 86
SWIDTH 583 0
DWIDTH 12 0
BBX 12 15 1 0
BITMAP
100005
B4002F
BC00BF
BE02FF
BE07FD
7F0FF4
BF2FE0
7F7F80
7FFF00
3FFE00
3FF800
2FF400
2FE000
1FD000
0B8000
ENDCHAR
STARTCHAR W
ENCODING 87
SWIDTH 994 0
DWIDTH 20 0
BBX 21 15 0 0
BITMAP
000000000400
02D000000F00
07F007402F80
0BF00FD03F80
0FE02FD07F80
1FD07FD0BF00
2FC0BFC0FE00
3F81FF82FD00
3F43FF83FC00
7F4FFF8BF400
7F7FFFFFF000
7FFFDBFFD000
3FFF43FF8000
1FFD02FF0000
069000B80000
ENDCHAR
STARTCHAR X
ENCODING 88
SWIDTH 623 0
DWIDTH 12 0
BBX 15 16 -1 -1
BITMAP
01000000
07D001A0
07F407F4
07FC2FF4
03FFFFE0
00FFFF40
007FF800
00BFE000
02FFE000
07FFF400
1FFBFD00
3FD1FE00
3F40BF00
7E003F00
3D001D00
14000000
ENDCHAR
STARTCHAR Y
ENCODING 89
SWIDTH 493 0
DWIDTH 10 0
BBX 11 16 1 -1
BITMAP
500060
F802F8
BD0BFC
BE1FF4
7E7FD0
7FFF40
3FFE00
2FFC00
0FF400
1FE000
2FD000
7F8000
BF0000
FE0000
FC0000
240000
ENDCHAR
STARTCHAR Z
ENCODING 90
SWIDTH 664 0
DWIDTH 13 0
BBX 15 16 -1 -1
BITMAP
00155440
00FFFFF0
00FFFFF8
00BFFFF8
00107FF4
0001FF80
000BFE00
007FF800
02FFD000
0BFE0000
2FF40100
3FD1AF90
7FFFFFD0
3FFFFF40
1FFFE400
06A40000
ENDCHAR
STARTCHAR bracketleft
ENCODING 91
SWIDTH 387 0
DWIDTH 8 0
BBX 15 22 -1 -4
BITMAP
001AFFE4
003FFFFC
003FFFE4
007E0000
007D0000
00BD0000
00FC0000
01F80000
01F80000
02F40000
03F00000
07E00000
0BE00000
0FD00000
0FC00000
1F800000
2F400000
3F050000
7FFFD000
BFFFE000
7FA94000
10000000
ENDCHAR
STARTCHAR backslash
ENCODING 92
SWIDTH 352 0
DWIDTH 7 0
BBX 5 16 1 -1
BITMAP
9000
B400
BC00
7C00
7D00
3D00
3D00
2E00
2F00
1F00
1F40
0F40
0F40
0F80
0B80
0100
ENDCHAR
STARTCHAR bracketright
ENCODING 93
SWIDTH 403 0
DWIDTH 8 0
BBX 15 22 -6 -4
BITMAP
001BFFD0
002FFFF4
002FFFF0
000403F0
000007E0
00000BD0
00000BD0
00000FC0
00001F80
00002F40
00002F00
00003F00
00007E00
0000BD00
0000FC00
0001F800
0002F800
0007F400
6BFFF000
BFFFE000
7FA94000
10000000
ENDCHAR
STARTCHAR asciicircum
ENCODING 94
SWIDTH 518 0
DWIDTH 10 0
BBX 9 12 0 3
BITMAP
001900
002F00
007F40
00BF80
01FF80
03FFC0
0BDBC0
2F8BC0
7F07C0
FD07C0
B802C0
100040
ENDCHAR
STARTCHAR underscore
ENCODING 95
SWIDTH 708 0
DWIDTH 14 0
BBX 16 4 -2 -1
BITMAP
01555540
FFFFFFFD
BFFFFFFF
2A555540
ENDCHAR
STARTCHAR grave
ENCODING 96
SWIDTH 754 0
DWIDTH 15 0
BBX 6 6 6 9
BITMAP
6000
FD00
FF40
3FC0
0BE0
02D0
ENDCHAR
STARTCHAR a
ENCODING 97
SWIDTH 581 0
DWIDTH 12 0
BBX 13 12 -1 0
BITMAP
00028000
000BE000
00BFE000
01FFF000
02FEF000
03F5F400
0BE1FE40
0FFFFF40
2FBFFD00
3F29BD00
7E01FD00
3D00F800
ENDCHAR
STARTCHAR b
ENCODING 98
SWIDTH 573 0
DWIDTH 11 0
BBX 12 13 -1 -1
BITMAP
06BFE0
2FFFF8
7FE5FD
2ED7FC
06FFF4
02FFE0
03FFF4
07E42D
0BD0BE
0FDBFE
1FFFF8
0FFF90
015400
ENDCHAR
STARTCHAR c
ENCODING 99
SWIDTH 513 0
DWIDTH 10 0
BBX 10 12 0 0
BITMAP
000680
006FE0
02FFE0
1FFF80
3FF400
BF4000
FD0000
F80000
B80000
7FEA80
2FFFD0
06FF80
ENDCHAR
STARTCHAR d
ENCODING 100
SWIDTH 497 0
DWIDTH 10 0
BBX 10 12 0 0
BITMAP
290000
2FD000
3FF800
3DBF00
2D0B80
2D02D0
2D02E0
3D1FD0
7EFF80
BFFD00
BFE000
7E0000
ENDCHAR
STARTCHAR e
ENCODING 101
SWIDTH 521 0
DWIDTH 10 0
BBX 11 13 0 -1
BITMAP
0016A4
0AFFFC
2FFFE4
2FE900
1F9500
1FFF80
2FFF80
7FA500
BD0040
BEABD0
BFFFE0
3FFE80
054000
ENDCHAR
STARTCHAR f
ENCODING 102
SWIDTH 455 0
DWIDTH 9 0
BBX 13 12 -1 0
BITMAP
0006FE00
06FFFF80
0FFFA500
0FF40000
03F00000
03E14000
3FFFE000
7FFFE000
2FE50000
2F000000
2E000000
1E000000
ENDCHAR
STARTCHAR g
ENCODING 103
SWIDTH 652 0
DWIDTH 13 0
BBX 14 12 0 0
BITMAP
0002D000
001FF400
00BFF400
02FF8000
0BF80000
2FE0B800
7F40BF40
FE007FD0
F805BFE0
BFBFFF80
7FFFF900
1FFA4000
ENDCHAR
STARTCHAR h
ENCODING 104
SWIDTH 582 0
DWIDTH 12 0
BBX 12 13 0 -1
BITMAP
040070
0E0074
1F40BC
2F40BD
2F40FD
2F00FC
3F6BFC
7FFFF8
BFFFF4
FF93F0
FE03F0
BC02D0
100000
ENDCHAR
STARTCHAR i
ENCODING 105
SWIDTH 320 0
DWIDTH 6 0
BBX 5 13 1 -1
BITMAP
0900
1F00
2F00
3F40
3F00
7E00
BD00
BD00
BC00
BC00
BC00
7C00
1000
ENDCHAR
STARTCHAR j
ENCODING 106
SWIDTH 534 0
DWIDTH 11 0
BBX 14 12 -1 0
BITMAP
015AAA90
0BFFFFF0
0FFFFFF0
0651F400
0002F000
0002F000
0003E000
0007D000
000FC000
7EBF8000
7FFF0000
2BF80000
ENDCHAR
STARTCHAR k
ENCODING 107
SWIDTH 645 0
DWIDTH 13 0
BBX 14 13 0 -1
BITMAP
01D00000
03F02E00
0BF1FF80
0FD7FE00
1FEFF400
2FFF8000
3FFE0000
7FFE0000
7FEFEA40
BF4BFFD0
BE01BF80
7C000500
10000000
ENDCHAR
STARTCHAR l
ENCODING 108
SWIDTH 533 0
DWIDTH 11 0
BBX 10 13 0 -1
BITMAP
039000
07E000
0BD000
0FC000
1F8000
2F4000
3F0000
7E0000
BD1500
BFFFE0
BFFFF0
3FEAA0
050000
ENDCHAR
STARTCHAR m
ENCODING 109
SWIDTH 814 0
DWIDTH 16 0
BBX 16 13 0 -1
BITMAP
00B40024
01FD007D
03FE01FF
0BFE0BFF
0FFF7FFE
1FFFFFFE
3FBFFE7D
7F2FE4BD
BE0500FD
FD0000FC
B80000F4
74000060
10000000
ENDCHAR
STARTCHAR n
ENCODING 110
SWIDTH 564 0
DWIDTH 11 0
BBX 12 12 0 0
BITMAP
018024
02F03D
07F4BE
0BF4BD
0FF0FC
2FF0F8
3FF2F8
BFF7F4
FFFFF0
FD7FE0
BC2FC0
740A00
ENDCHAR
STARTCHAR o
ENCODING 111
SWIDTH 628 0
DWIDTH 13 0
BBX 12 13 0 -1
BITMAP
0007C0
002FF0
00BFE0
02FFF0
0BF5F8
2FD0BC
3F003D
BD002E
BC01BE
BEAFFD
7FFFF4
1FFE40
015000
ENDCHAR
STARTCHAR p
ENCODING 112
SWIDTH 524 0
DWIDTH 10 0
BBX 11 13 0 -1
BITMAP
00BFD0
02FFF4
07FFF8
0BD5FC
2F86FC
3FFFF8
7FFFE0
7FFA40
3F4000
7E0000
7E0000
7D0000
140000
ENDCHAR
STARTCHAR q
ENCODING 113
SWIDTH 625 0
DWIDTH 13 0
BBX 12 13 0 -1
BITMAP
000F80
001FF0
007FF4
01FFFC
0BF83E
2FD01F
7F5E2F
FD0FFF
F80BFD
FABFF8
BFFFF8
2FF9BC
05003C
ENDCHAR
STARTCHAR r
ENCODING 114
SWIDTH 541 0
DWIDTH 11 0
BBX 11 13 0 -1
BITMAP
002D00
00BF40
02FFC0
1FEBE0
2F83E0
2FAFE0
3FFFC0
7FF900
7FE000
BFFD40
BDFFF8
782FF8
0001A4
ENDCHAR
STARTCHAR s
ENCODING 115
SWIDTH 463 0
DWIDTH 9 0
BBX 12 13 0 -1
BITMAP
001BF4
06FFFC
7FFFFD
BFD000
BFF400
6FFD00
006F00
000B40
006F40
16FE00
3FF800
3F9000
140000
ENDCHAR
STARTCHAR t
ENCODING 116
SWIDTH 479 0
DWIDTH 10 0
BBX 13 13 0 -1
BITMAP
156AFF40
FFFFFFC0
BFFFEA40
6ABD0000
00FC0000
01F80000
02F00000
07E00000
07D00000
0BC00000
07800000
03D00000
00400000
ENDCHAR
STARTCHAR u
ENCODING 117
SWIDTH 584 0
DWIDTH 12 0
BBX 11 12 1 0
BITMAP
000024
100078
78007C
BC00BC
BD00FC
FC02F8
FC07F4
FC2FE0
FEFF80
BFFE00
7FF800
1F9000
ENDCHAR
STARTCHAR v
ENCODING 118
SWIDTH 485 0
DWIDTH 10 0
BBX 10 12 1 0
BITMAP
6000E0
B403F0
BC0BF0
BD1FD0
BD3F40
BDBE00
7FFC00
7FF400
3FE000
3FC000
2F4000
1F4000
ENDCHAR
STARTCHAR w
ENCODING 119
SWIDTH 825 0
DWIDTH 17 0
BBX 18 12 0 0
BITMAP
0200000240
0BC02407C0
0FC07C0BD0
1F80FD0FD0
2F42FC1F80
3F07FC3F40
3E0FF87F00
7E2FF9FD00
BEBFFFFC00
7FFE3FF400
3FF42FE000
0B900F8000
ENDCHAR
STARTCHAR x
ENCODING 120
SWIDTH 506 0
DWIDTH 10 0
BBX 13 13 -1 -1
BITMAP
06000500
0BD02F00
0BF1FF40
07FFFD00
01FFE000
00FF4000
02FF4000
0BFF8000
2FDBE000
3F47F000
7D02F400
3C01E000
14000000
ENDCHAR
STARTCHAR y
ENCODING 121
SWIDTH 400 0
DWIDTH 8 0
BBX 9 13 1 -1
BITMAP
A00B40
F82FC0
BC7F40
BDFE00
7FF800
3FF000
2FD000
2F8000
3F4000
BE0000
FC0000
F80000
600000
ENDCHAR
STARTCHAR z
ENCODING 122
SWIDTH 547 0
DWIDTH 11 0
BBX 12 13 0 -1
BITMAP
06EAA8
0BFFFD
07FFFD
000BF8
002FD0
01FF40
0BFD00
7FE000
FF4050
FE6FF4
FFFFE0
BFFE40
1A4000
ENDCHAR
STARTCHAR braceleft
ENCODING 123
SWIDTH 448 0
DWIDTH 9 0
BBX 16 22 0 -4
BITMAP
000AFFF8
001FFFFF
001FFFE9
001F8000
002F4000
003F0000
003F0000
01FE0000
2FFD0000
BFE00000
7F800000
2FF40000
07F40000
03F00000
07E00000
0BD00000
0FD00000
1FC14000
2FFFE000
2FFFF400
1FEA5000
04000000
ENDCHAR
STARTCHAR bar
ENCODING 124
SWIDTH 332 0
DWIDTH 7 0
BBX 7 16 0 -1
BITMAP
0020
00B4
00F8
01F4
02F0
03E0
07D0
0BC0
0F80
1F40
2F00
3E00
BD00
FC00
B800
1000
ENDCHAR
STARTCHAR braceright
ENCODING 125
SWIDTH 481 0
DWIDTH 10 0
BBX 16 22 -6 -4
BITMAP
002BFFD0
003FFFF0
002FFFF0
000407E0
000007D0
00000BD0
00000FC0
00001F80
00002F80
00002FF4
00000BFC
00000BFD
00007FF8
0000FF40
0001FC00
0001F800
0002F400
0007F000
6BFFE000
BFFFD000
7FA94000
10000000
ENDCHAR
STARTCHAR asciitilde
ENCODING 126
SWIDTH 581 0
DWIDTH 12 0
BBX 11 4 0 4
BITMAP
0BE068
3FFDF8
BDBFE0
A42A80
ENDCHAR
STARTCHAR uni00A0
ENCODING 160
SWIDTH 370 0
DWIDTH 7 0
BBX 1 1 0 0
BITMAP
00
ENDCHAR
STARTCHAR exclamdown
ENCODING 161
SWIDTH 260 0
DWIDTH 5 0
BBX 5 16 0 -1
BITMAP
0640
0FC0
1FC0
0640
0000
1900
3E00
3E00
7E00
BD00
BC00
FC00
F800
F800
B400
5000
ENDCHAR
STARTCHAR cent
ENCODING 162
SWIDTH 488 0
DWIDTH 10 0
BBX 10 16 0 -1
BITMAP
000400
002D00
003E00
007F80
01FFD0
0BFE40
3FE000
BE0000
B80000
B80000
7FAA00
2FFF80
0BFE40
0F8000
0F4000
010000
ENDCHAR
STARTCHAR sterling
ENCODING 163
SWIDTH 586 0
DWIDTH 12 0
BBX 12 12 0 1
BITMAP
001BA8
00BFFD
01FEBD
02F400
17FA40
BFFFD0
7FFE90
1FC000
0F85A0
FFFFF0
BFFFF0
1A5500
ENDCHAR
STARTCHAR currency
ENCODING 164
SWIDTH 509 0
DWIDTH 10 0
BBX 10 11 0 0
BITMAP
182450
1FFFE0
1FFFE0
1FFF40
2FAF40
7E2F40
7FFF40
7FFF00
BEAF00
B00F00
100000
ENDCHAR
STARTCHAR yen
ENCODING 165
SWIDTH 563 0
DWIDTH 11 0
BBX 12 13 0 0
BITMAP
050014
0B80BD
07C2FD
07D7F4
07EFD0
03FF80
6BFF90
BFFFF4
7FFE90
13F400
0BE000
0FC000
078000
ENDCHAR
STARTCHAR brokenbar
ENCODING 166
SWIDTH 301 0
DWIDTH 6 0
BBX 8 16 -1 -1
BITMAP
0014
003C
007D
00BC
00F8
01F4
01F0
0050
0000
0640
0F80
1F40
3F00
7E00
3D00
0400
ENDCHAR
STARTCHAR section
ENCODING 167
SWIDTH 630 0
DWIDTH 13 0
BBX 13 18 0 -2
BITMAP
0006A900
06FFFF00
0FFFFF40
1FFA5900
1FF40000
0BFF8000
0BFFF400
2FFFFD00
3FD5BE00
3F45FE00
2FFFFD00
0BFFF400
01FFF400
001BF800
155BFC00
BFFFF800
BFFFE000
2FA40000
ENDCHAR
STARTCHAR dieresis
ENCODING 168
SWIDTH 754 0
DWIDTH 15 0
BBX 9 4 4 11
BITMAP
180500
7E0FC0
7E0F80
240500
ENDCHAR
STARTCHAR copyright
ENCODING 169
SWIDTH 614 0
DWIDTH 12 0
BBX 12 13 0 2
BITMAP
000500
00BFD0
03F838
0F819D
2E1FDF
3DBE4B
79E00B
B6800B
B5E91E
78BF7D
2D05B4
0BABD0
01AE00
ENDCHAR
STARTCHAR ordfeminine
ENCODING 170
SWIDTH 454 0
DWIDTH 9 0
BBX 9 9 0 4
BITMAP
006400
02FC00
0BFC00
1FFD00
2FBF40
7FFF80
BFFF40
F87F00
642900
ENDCHAR
STARTCHAR guillemotleft
ENCODING 171
SWIDTH 566 0
DWIDTH 11 0
BBX 11 10 0 -1
BITMAP
005014
01E078
07E2F8
6F9FE0
FE7F40
F87E00
BE2F80
2F8BD0
07C1E0
004010
ENDCHAR
STARTCHAR logicalnot
ENCODING 172
SWIDTH 698 0
DWIDTH 14 0
BBX 13 7 0 0
BITMAP
56AAA800
BFFFFF40
BFFFFF40
14002F00
00007E00
00007D00
00007800
ENDCHAR
STARTCHAR sfthyphen
ENCODING 173
SWIDTH 608 0
DWIDTH 12 0
BBX 11 4 0 3
BITMAP
16AA90
7FFFF8
7FFFA4
140000
ENDCHAR
STARTCHAR registered
ENCODING 174
SWIDTH 624 0
DWIDTH 12 0
BBX 13 13 0 2
BITMAP
00014000
00BFE000
02F92C00
0B878E00
1F1FDB00
2D79E740
7CBFD740
78FE4B40
79FE4F00
3DDBFE00
2D41F800
0BABE000
01AE4000
ENDCHAR
STARTCHAR macron
ENCODING 175
SWIDTH 754 0
DWIDTH 15 0
BBX 7 3 5 12
BITMAP
6AA4
BFFC
BEE8
ENDCHAR
STARTCHAR degree
ENCODING 176
SWIDTH 284 0
DWIDTH 6 0
BBX 7 7 1 10
BITMAP
0040
02D0
0BE0
2FF0
3DF4
7FF4
2F90
ENDCHAR
STARTCHAR plusminus
ENCODING 177
SWIDTH 559 0
DWIDTH 11 0
BBX 12 15 -1 -1
BITMAP
000240
000BC0
000FC0
001FC0
0ABFF9
0FFFFF
0BFFA9
003F00
007E00
007D00
001400
16AA90
7FFFF8
7FFFA4
140000
ENDCHAR
STARTCHAR twosuperior
ENCODING 178
SWIDTH 386 0
DWIDTH 8 0
BBX 8 8 1 7
BITMAP
0500
7FE0
7FF4
1BF4
2FD0
7FAD
BFFE
7FA4
ENDCHAR
STARTCHAR threesuperior
ENCODING 179
SWIDTH 366 0
DWIDTH 7 0
BBX 7 8 1 7
BITMAP
0040
7FF4
BFF8
6FF0
0FF4
06F8
1FF8
1FE0
ENDCHAR
STARTCHAR acute
ENCODING 180
SWIDTH 754 0
DWIDTH 15 0
BBX 6 6 6 9
BITMAP
0180
0BD0
2FE0
BF40
FD00
E400
ENDCHAR
STARTCHAR mu
ENCODING 181
SWIDTH 569 0
DWIDTH 11 0
BBX 11 13 0 -2
BITMAP
000024
040038
1D007C
2F007C
2F00FC
3E01F8
7E07F0
7F6FD0
BFFF40
FFFD00
FFE000
F40000
F00000
ENDCHAR
STARTCHAR paragraph
ENCODING 182
SWIDTH 729 0
DWIDTH 15 0
BBX 15 16 1 -1
BITMAP
0005ABD0
02BFFFF4
2FFFFFF8
BFFFDFC0
BF9F8F80
BE1F9F40
7F6F6F40
2FFF6F00
07FFFF00
007FFF80
007EBE40
00BDBC00
00BCFC00
00F8BD00
00F47E00
00101400
ENDCHAR
STARTCHAR periodcentered
ENCODING 183
SWIDTH 226 0
DWIDTH 5 0
BBX 4 3 1 6
BITMAP
B4
FD
F8
ENDCHAR
STARTCHAR cedilla
ENCODING 184
SWIDTH 754 0
DWIDTH 15 0
BBX 7 7 5 -6
BITMAP
0780
1F40
1FD0
0AF4
00BC
BFFC
7FE0
ENDCHAR
STARTCHAR onesuperior
ENCODING 185
SWIDTH 206 0
DWIDTH 4 0
BBX 4 8 1 7
BITMAP
10
38
3D
3D
3D
7C
B8
74
ENDCHAR
STARTCHAR ordmasculine
ENCODING 186
SWIDTH 445 0
DWIDTH 9 0
BBX 9 9 0 4
BITMAP
007800
02FD00
0BFD00
2FFF00
7F6F40
BD2F80
BFFF80
BFFE00
2FE400
ENDCHAR
STARTCHAR guillemotright
ENCODING 187
SWIDTH 595 0
DWIDTH 12 0
BBX 12 10 -1 -1
BITMAP
140500
1E0780
0FD3F4
07F1FD
01F87E
07F9FE
1FD7F4
7E1F80
781E00
100400
ENDCHAR
STARTCHAR onequarter
ENCODING 188
SWIDTH 705 0
DWIDTH 14 0
BBX 14 16 0 -1
BITMAP
04000800
1E003C00
1F40BC00
0F42F800
1F47E000
2F0FC000
3E3F4000
2DBD0600
02FA8B40
07E3CF80
1FC3FFD0
3F02FF80
7E007D00
7D007C00
7C003D00
04001400
ENDCHAR
STARTCHAR onehalf
ENCODING 189
SWIDTH 750 0
DWIDTH 15 0
BBX 14 16 0 -1
BITMAP
04000800
1E003C00
1F40BC00
0F42F800
1F47E000
2F0FC000
3E3F4000
2DBD1000
02FAFF00
07E2FF80
1FC06F80
3F00BE00
7E02FE90
7D02FFF0
7C01FE40
04000000
ENDCHAR
STARTCHAR threequarters
ENCODING 190
SWIDTH 818 0
DWIDTH 16 0
BBX 15 16 1 -1
BITMAP
15500040
7FF402D0
7FF80BD0
2FE02FC0
1FE07E00
2BF1F800
7FE7E000
6A5F80D0
007EA2E0
01F8F6E0
07E0FFF4
1F80BFE0
2F002F40
3E001F00
3D001F00
04000500
ENDCHAR
STARTCHAR questiondown
ENCODING 191
SWIDTH 556 0
DWIDTH 11 0
BBX 11 16 -1 -1
BITMAP
000024
0000F8
0000FC
0000B8
000000
000290
000BD0
00BFC0
07FF00
2FF800
BFD000
FF4010
FFFFF4
FFFFF4
6FFFE0
016A40
ENDCHAR
STARTCHAR Agrave
ENCODING 192
SWIDTH 702 0
DWIDTH 14 0
BBX 15 21 -1 0
BITMAP
00018000
0003F400
0003FD00
0000FF00
00002F80
00000B40
00004000
0000F800
0002FD00
003FFE00
00BFFE00
00FFFF00
01FE7F00
03FC3F90
07F97FF8
0FFFFFF8
1FEFFFE0
2F8FAFD0
7F401FE0
7F002FD0
2D001F40
ENDCHAR
STARTCHAR Aacute
ENCODING 193
SWIDTH 702 0
DWIDTH 14 0
BBX 15 22 -1 0
BITMAP
00000600
00001F80
00007F80
0001FE00
0003F800
0002D000
00000000
00004000
0000F800
0002FD00
003FFE00
00BFFE00
00FFFF00
01FE7F00
03FC3F90
07F97FF8
0FFFFFF8
1FEFFFE0
2F8FAFD0
7F401FE0
7F002FD0
2D001F40
ENDCHAR
STARTCHAR Acircumflex
ENCODING 194
SWIDTH 702 0
DWIDTH 14 0
BBX 15 21 -1 0
BITMAP
00001400
0000BD00
0003FF80
001FDBE0
000F42E0
00050080
00004000
0000F800
0002FD00
003FFE00
00BFFE00
00FFFF00
01FE7F00
03FC3F90
07F97FF8
0FFFFFF8
1FEFFFE0
2F8FAFD0
7F401FE0
7F002FD0
2D001F40
ENDCHAR
STARTCHAR Atilde
ENCODING 195
SWIDTH 702 0
DWIDTH 14 0
BBX 16 19 -1 0
BITMAP
0001B92D
0007FFBD
000BEFF8
000A4690
00004000
0000F800
0002FD00
003FFE00
00BFFE00
00FFFF00
01FE7F00
03FC3F90
07F97FF8
0FFFFFF8
1FEFFFE0
2F8FAFD0
7F401FE0
7F002FD0
2D001F40
ENDCHAR
STARTCHAR Adieresis
ENCODING 196
SWIDTH 702 0
DWIDTH 14 0
BBX 15 19 -1 0
BITMAP
00060190
000F83F0
001FC3F0
000A0080
00004000
0000F800
0002FD00
003FFE00
00BFFE00
00FFFF00
01FE7F00
03FC3F90
07F97FF8
0FFFFFF8
1FEFFFE0
2F8FAFD0
7F401FE0
7F002FD0
2D001F40
ENDCHAR
STARTCHAR Aring
ENCODING 197
SWIDTH 702 0
DWIDTH 14 0
BBX 15 20 -1 0
BITMAP
00000100
00000B00
00003F40
0000FF80
0001F7D0
0002FFC0
0001FE00
0002FD00
003FFE00
00BFFE00
00FFFF00
01FE7F00
03FC3F90
07F97FF8
0FFFFFF8
1FEFFFE0
2F8FAFD0
7F401FE0
7F002FD0
2D001F40
ENDCHAR
STARTCHAR AE
ENCODING 198
SWIDTH 1153 0
DWIDTH 23 0
BBX 26 15 -2 0
BITMAP
00000400000500
00001F801AFFD0
00007FC6FFFFD0
0007FFCFFFFF40
001FFFCFFF9000
002FFFCBF00000
007F9FD7FFF400
00FF0FDBFFFD00
02FD5FFFFFF800
07FFFFFFD94000
0FFFFFFF800000
1FDBABFF55AD00
3F801BFFFFFF40
7F002FFFFFFE00
2D001F5FFFA400
ENDCHAR
STARTCHAR Ccedilla
ENCODING 199
SWIDTH 611 0
DWIDTH 12 0
BBX 12 22 0 -7
BITMAP
000010
0002F8
001FFE
01FFFE
07FFF8
1FFE40
7FF400
BF8000
FE0000
FC0000
BC0000
7FA950
2FFFF8
0BFFFD
01FFF4
03E000
07E400
02FE00
001F40
1ABF40
1FFD00
014000
ENDCHAR
STARTCHAR Egrave
ENCODING 200
SWIDTH 626 0
DWIDTH 13 0
BBX 13 22 0 0
BITMAP
00180000
003F4000
003FD000
000BF000
0002F800
0000B400
00000000
00000500
005BFF80
0BFFFFC0
2FFFFE00
1FFE4000
0FE00000
0BFFE000
1FFFF800
2FFFE400
7FA54000
BF000000
BE55B800
BFFFFE00
7FFFFD00
2FFF9000
ENDCHAR
STARTCHAR Eacute
ENCODING 201
SWIDTH 626 0
DWIDTH 13 0
BBX 13 21 0 0
BITMAP
00001800
0000BD00
0002FE00
000BF400
000FD000
000E4000
00000500
005BFF80
0BFFFFC0
2FFFFE00
1FFE4000
0FE00000
0BFFE000
1FFFF800
2FFFE400
7FA54000
BF000000
BE55B800
BFFFFE00
7FFFFD00
2FFF9000
ENDCHAR
STARTCHAR Ecircumflex
ENCODING 202
SWIDTH 626 0
DWIDTH 13 0
BBX 13 21 0 0
BITMAP
00014000
000BE000
002FFC00
00BE7F00
00B81F00
00200500
00000500
005BFF80
0BFFFFC0
2FFFFE00
1FFE4000
0FE00000
0BFFE000
1FFFF800
2FFFE400
7FA54000
BF000000
BE55B800
BFFFFE00
7FFFFD00
2FFF9000
ENDCHAR
STARTCHAR Edieresis
ENCODING 203
SWIDTH 626 0
DWIDTH 13 0
BBX 13 19 0 0
BITMAP
00140900
00BD2F80
00FD2F40
00640500
00000500
005BFF80
0BFFFFC0
2FFFFE00
1FFE4000
0FE00000
0BFFE000
1FFFF800
2FFFE400
7FA54000
BF000000
BE55B800
BFFFFE00
7FFFFD00
2FFF9000
ENDCHAR
STARTCHAR Igrave
ENCODING 204
SWIDTH 515 0
DWIDTH 10 0
BBX 14 22 -1 0
BITMAP
00090000
002F8000
002FE000
000BF400
0001FC00
00007C00
00000000
00156940
02FFFFD0
02FFFFF0
01FFF940
000BD000
000BD000
000FC000
001F8000
003F4000
007F0000
00BE0000
01FE4000
7FFFE000
BFFFE000
7FA94000
ENDCHAR
STARTCHAR Iacute
ENCODING 205
SWIDTH 515 0
DWIDTH 10 0
BBX 14 22 -1 0
BITMAP
00000180
00000BD0
00002FE0
0000BF40
0000FD00
0000E400
00000000
00156940
02FFFFD0
02FFFFF0
01FFF940
000BD000
000BD000
000FC000
001F8000
003F4000
007F0000
00BE0000
01FE4000
7FFFE000
BFFFE000
7FA94000
ENDCHAR
STARTCHAR Icircumflex
ENCODING 206
SWIDTH 515 0
DWIDTH 10 0
BBX 14 22 -1 0
BITMAP
00001000
0001FD00
0007FF40
001FDFD0
001F07D0
00080140
00000000
00156940
02FFFFD0
02FFFFF0
01FFF940
000BD000
000BD000
000FC000
001F8000
003F4000
007F0000
00BE0000
01FE4000
7FFFE000
BFFFE000
7FA94000
ENDCHAR
STARTCHAR Idieresis
ENCODING 207
SWIDTH 515 0
DWIDTH 10 0
BBX 14 20 -1 0
BITMAP
00060140
001F83F0
001F83E0
00090140
00000000
00156940
02FFFFD0
02FFFFF0
01FFF940
000BD000
000BD000
000FC000
001F8000
003F4000
007F0000
00BE0000
01FE4000
7FFFE000
BFFFE000
7FA94000
ENDCHAR
STARTCHAR Eth
ENCODING 208
SWIDTH 656 0
DWIDTH 13 0
BBX 14 15 -1 0
BITMAP
00400000
01F80000
01FF9000
01FFF800
01F6FE00
01F42F80
2BFE07D0
7FFF42E0
3FFE07E0
26F46FE0
03F6FF80
07FFFE00
07FFF400
03FE4000
02E40000
ENDCHAR
STARTCHAR Ntilde
ENCODING 209
SWIDTH 684 0
DWIDTH 14 0
BBX 15 20 0 0
BITMAP
0002F868
000BFEF8
001FBFF0
00191A80
00000000
00000100
00B803D0
00FE07F0
02FE0BF0
03FE0FE0
0BFD0FD0
0FFD1FC0
2FFD2FC0
3FFD3F80
7FFDBF80
FFFFFF40
FF6FFF00
FE1FFD00
BD07F400
28019000
ENDCHAR
STARTCHAR Ograve
ENCODING 210
SWIDTH 744 0
DWIDTH 15 0
BBX 14 22 0 -1
BITMAP
0000A000
0001F800
0001FE00
00007F80
00001FD0
000002C0
00006400
0002FD00
000BFE00
007FFE00
01FFFF00
07FFAF40
0FF81FC0
2FE00BD0
3F8003E0
BF0003F0
BE001FF0
BE56FFF0
BFFFFFD0
3FFFFE00
0BFF9000
00100000
ENDCHAR
STARTCHAR Oacute
ENCODING 211
SWIDTH 744 0
DWIDTH 15 0
BBX 14 22 0 -1
BITMAP
00001800
00007E00
0001FE00
0007F800
000FE000
000B4000
00006400
0002FD00
000BFE00
007FFE00
01FFFF00
07FFAF40
0FF81FC0
2FE00BD0
3F8003E0
BF0003F0
BE001FF0
BE56FFF0
BFFFFFD0
3FFFFE00
0BFF9000
00100000
ENDCHAR
STARTCHAR Ocircumflex
ENCODING 212
SWIDTH 744 0
DWIDTH 15 0
BBX 14 22 0 -1
BITMAP
00001400
0000BD00
0003FF80
001FDBE0
000F42E0
00050080
00006400
0002FD00
000BFE00
007FFE00
01FFFF00
07FFAF40
0FF81FC0
2FE00BD0
3F8003E0
BF0003F0
BE001FF0
BE56FFF0
BFFFFFD0
3FFFFE00
0BFF9000
00100000
ENDCHAR
STARTCHAR Otilde
ENCODING 213
SWIDTH 744 0
DWIDTH 15 0
BBX 15 21 0 -1
BITMAP
0002F868
000BFEF8
001FBFF0
00191A80
00000000
00006400
0002FD00
000BFE00
007FFE00
01FFFF00
07FFAF40
0FF81FC0
2FE00BD0
3F8003E0
BF0003F0
BE001FF0
BE56FFF0
BFFFFFD0
3FFFFE00
0BFF9000
00100000
ENDCHAR
STARTCHAR Odieresis
ENCODING 214
SWIDTH 744 0
DWIDTH 15 0
BBX 14 20 0 -1
BITMAP
00060140
001F83F0
001F83E0
00090140
00006400
0002FD00
000BFE00
007FFE00
01FFFF00
07FFAF40
0FF81FC0
2FE00BD0
3F8003E0
BF0003F0
BE001FF0
BE56FFF0
BFFFFFD0
3FFFFE00
0BFF9000
00100000
ENDCHAR
STARTCHAR multiply
ENCODING 215
SWIDTH 490 0
DWIDTH 10 0
BBX 10 10 0 0
BITMAP
2D02D0
2F5FE0
1FFF80
07FD00
0BF400
2FF800
7FBD00
BC2E00
F01F00
A00500
ENDCHAR
STARTCHAR Oslash
ENCODING 216
SWIDTH 744 0
DWIDTH 15 0
BBX 14 18 0 -3
BITMAP
00006460
0002FDF0
000BFFF0
007FFFF0
01FFFFD0
07FFFF80
0FF9FFC0
2FE3FFD0
3F8BF7E0
BF2FD3F0
BE7F5FF0
BEFFFFF0
BFFFFFD0
3FFFFE00
0FFF9000
0FD00000
0FC00000
06400000
ENDCHAR
STARTCHAR Ugrave
ENCODING 217
SWIDTH 695 0
DWIDTH 14 0
BBX 14 20 1 0
BITMAP
00900000
02F40000
03FD0000
00BF4000
002F8000
00078100
00000740
24000B80
7C000BC0
BE000FD0
BF001FD0
FE002FC0
FD007F80
FD01FF00
FD0BFE00
FFBFF800
BFFFE000
7FFF8000
2FFE0000
0AA00000
ENDCHAR
STARTCHAR Uacute
ENCODING 218
SWIDTH 695 0
DWIDTH 14 0
BBX 14 21 1 0
BITMAP
00001800
0000BD00
0002FE00
000BF400
000FD000
000E4000
00000100
00000740
24000B80
7C000BC0
BE000FD0
BF001FD0
FE002FC0
FD007F80
FD01FF00
FD0BFE00
FFBFF800
BFFFE000
7FFF8000
2FFE0000
0AA00000
ENDCHAR
STARTCHAR Ucircumflex
ENCODING 219
SWIDTH 695 0
DWIDTH 14 0
BBX 14 21 1 0
BITMAP
00010000
001FD000
007FF400
01FDFD00
01F07D00
00801400
00000100
00000740
24000B80
7C000BC0
BE000FD0
BF001FD0
FE002FC0
FD007F80
FD01FF00
FD0BFE00
FFBFF800
BFFFE000
7FFF8000
2FFE0000
0AA00000
ENDCHAR
STARTCHAR Udieresis
ENCODING 220
SWIDTH 695 0
DWIDTH 14 0
BBX 14 19 1 0
BITMAP
00502400
02F47E00
02F47E00
01901400
00000100
00000740
24000B80
7C000BC0
BE000FD0
BF001FD0
FE002FC0
FD007F80
FD01FF00
FD0BFE00
FFBFF800
BFFFE000
7FFF8000
2FFE0000
0AA00000
ENDCHAR
STARTCHAR Yacute
ENCODING 221
SWIDTH 493 0
DWIDTH 10 0
BBX 11 23 1 -1
BITMAP
0000A0
0002F4
000BF4
002FD0
007F40
003800
000000
500060
F802F8
BD0BFC
BE1FF4
7E7FD0
7FFF40
3FFE00
2FFC00
0FF400
1FE000
2FD000
7F8000
BF0000
FE0000
FC0000
240000
ENDCHAR
STARTCHAR Thorn
ENCODING 222
SWIDTH 680 0
DWIDTH 14 0
BBX 14 15 0 0
BITMAP
01400000
07800000
0BC00000
0FFEA400
1FFFFF40
1FFFFFD0
2FC02FE0
3F807FE0
7F86FFD0
7FAFFE00
7FFFE400
7FFE0000
7F900000
3F000000
2E000000
ENDCHAR
STARTCHAR germandbls
ENCODING 223
SWIDTH 931 0
DWIDTH 19 0
BBX 21 13 0 -1
BITMAP
001BF406FE00
06FFFDBFFF40
7FFFFFFFFF80
BFD01FF80000
BFF41FFE0000
6FFD0BFF8000
006F0017D000
000B4002E000
006F400BE000
16FE05BFC000
3FF80BFF4000
3F900BF80000
140001400000
ENDCHAR
STARTCHAR agrave
ENCODING 224
SWIDTH 581 0
DWIDTH 12 0
BBX 13 19 -1 0
BITMAP
000A0000
001F8000
001FE000
0007F800
0001FD00
00002C00
00000000
00028000
000BE000
00BFE000
01FFF000
02FEF000
03F5F400
0BE1FE40
0FFFFF40
2FBFFD00
3F29BD00
7E01FD00
3D00F800
ENDCHAR
STARTCHAR aacute
ENCODING 225
SWIDTH 581 0
DWIDTH 12 0
BBX 13 19 -1 0
BITMAP
00002400
0000FC00
0003FD00
000FF400
002F8000
001E0000
00000000
00028000
000BE000
00BFE000
01FFF000
02FEF000
03F5F400
0BE1FE40
0FFFFF40
2FBFFD00
3F29BD00
7E01FD00
3D00F800
ENDCHAR
STARTCHAR acircumflex
ENCODING 226
SWIDTH 581 0
DWIDTH 12 0
BBX 13 18 -1 0
BITMAP
00014000
000BE000
002FFC00
00BE7F00
00B81F00
00200500
00028000
000BE000
00BFE000
01FFF000
02FEF000
03F5F400
0BE1FE40
0FFFFF40
2FBFFD00
3F29BD00
7E01FD00
3D00F800
ENDCHAR
STARTCHAR atilde
ENCODING 227
SWIDTH 581 0
DWIDTH 12 0
BBX 14 17 -1 0
BITMAP
001B92D0
007FFBD0
00BEFF80
00A46900
00000000
00028000
000BE000
00BFE000
01FFF000
02FEF000
03F5F400
0BE1FE40
0FFFFF40
2FBFFD00
3F29BD00
7E01FD00
3D00F800
ENDCHAR
STARTCHAR adieresis
ENCODING 228
SWIDTH 581 0
DWIDTH 12 0
BBX 13 17 -1 0
BITMAP
00180500
007E0FC0
007E0F80
00240500
00000000
00028000
000BE000
00BFE000
01FFF000
02FEF000
03F5F400
0BE1FE40
0FFFFF40
2FBFFD00
3F29BD00
7E01FD00
3D00F800
ENDCHAR
STARTCHAR aring
ENCODING 229
SWIDTH 581 0
DWIDTH 12 0
BBX 13 17 -1 0
BITMAP
00001000
0000B800
0002F800
000BBD00
000FBE00
000FFD00
000BE000
00BFE000
01FFF000
02FEF000
03F5F400
0BE1FE40
0FFFFF40
2FBFFD00
3F29BD00
7E01FD00
3D00F800
ENDCHAR
STARTCHAR ae
ENCODING 230
SWIDTH 948 0
DWIDTH 19 0
BBX 22 13 -2 -1
BITMAP
000064016A80
0001FC6FFFD0
001FFDFFFF80
003FFCFE9000
00BFFCBD5400
01FCBDBFFD00
03F4BFFFFD00
0BFFFFFA9000
1FFFFFE00400
2F597FFABF00
7E01FFFFFF40
3D00F9FFF900
000000140000
ENDCHAR
STARTCHAR ccedilla
ENCODING 231
SWIDTH 513 0
DWIDTH 10 0
BBX 10 18 0 -6
BITMAP
000680
006FE0
02FFE0
1FFF80
3FF400
BF4000
FD0000
F80000
B80000
7FEA80
2FFFD0
07FF80
03D000
07E000
02FC00
006E00
1FFD00
0AA000
ENDCHAR
STARTCHAR egrave
ENCODING 232
SWIDTH 521 0
DWIDTH 10 0
BBX 11 20 0 -1
BITMAP
028000
07E000
07F800
01FE00
007F40
000B00
000000
0016A4
0AFFFC
2FFFE4
2FE900
1F9500
1FFF80
2FFF80
7FA500
BD0040
BEABD0
BFFFE0
3FFE80
054000
ENDCHAR
STARTCHAR eacute
ENCODING 233
SWIDTH 521 0
DWIDTH 10 0
BBX 11 20 0 -1
BITMAP
000090
0007F0
001FF0
007F80
00BE00
00B400
000000
0016A4
0AFFFC
2FFFE4
2FE900
1F9500
1FFF80
2FFF80
7FA500
BD0040
BEABD0
BFFFE0
3FFE80
054000
ENDCHAR
STARTCHAR ecircumflex
ENCODING 234
SWIDTH 521 0
DWIDTH 10 0
BBX 12 19 0 -1
BITMAP
000100
001FD0
007FF4
02FDFD
02F07D
008014
0016A4
0AFFFC
2FFFE4
2FE900
1F9500
1FFF80
2FFF80
7FA500
BD0040
BEABD0
BFFFE0
3FFE80
054000
ENDCHAR
STARTCHAR edieresis
ENCODING 235
SWIDTH 521 0
DWIDTH 10 0
BBX 12 18 0 -1
BITMAP
006014
01F83F
01F83E
009014
000000
0016A4
0AFFFC
2FFFE4
2FE900
1F9500
1FFF80
2FFF80
7FA500
BD0040
BEABD0
BFFFE0
3FFE80
054000
ENDCHAR
STARTCHAR igrave
ENCODING 236
SWIDTH 320 0
DWIDTH 6 0
BBX 7 20 1 -1
BITMAP
1800
3F00
7FC0
1FE0
03F4
00B4
0000
0900
1F00
2F00
3F40
3F00
7E00
BD00
BD00
BC00
BC00
BC00
7C00
1000
ENDCHAR
STARTCHAR iacute
ENCODING 237
SWIDTH 320 0
DWIDTH 6 0
BBX 10 20 1 -1
BITMAP
000280
000BD0
002FD0
00BF40
01FD00
00E000
000000
090000
1F0000
2F0000
3F4000
3F0000
7E0000
BD0000
BD0000
BC0000
BC0000
BC0000
7C0000
100000
ENDCHAR
STARTCHAR icircumflex
ENCODING 238
SWIDTH 320 0
DWIDTH 6 0
BBX 8 20 1 -1
BITMAP
0140
0BE0
2FF8
FEBE
F82E
5009
0000
0900
1F00
2F00
3F40
3F00
7E00
BD00
BD00
BC00
BC00
BC00
7C00
1000
ENDCHAR
STARTCHAR idieresis
ENCODING 239
SWIDTH 320 0
DWIDTH 6 0
BBX 9 18 0 -1
BITMAP
180640
3E0FC0
7F0FC0
280200
000000
024000
07C000
0BC000
0FD000
0FC000
1F8000
2F4000
2F4000
2F0000
2F0000
2F0000
1F0000
040000
ENDCHAR
STARTCHAR eth
ENCODING 240
SWIDTH 541 0
DWIDTH 11 0
BBX 12 13 -1 -1
BITMAP
039000
03FD00
03FF80
03DBF0
07E0B8
7FF82D
7FF83D
2BC1FD
0BEFF8
0BFFD0
0BFE00
07D000
010000
ENDCHAR
STARTCHAR ntilde
ENCODING 241
SWIDTH 564 0
DWIDTH 11 0
BBX 14 17 0 0
BITMAP
000BE1A0
002FFBE0
007EFFC0
00646A00
00000000
01802400
02F03D00
07F4BE00
0BF4BD00
0FF0FC00
2FF0F800
3FF2F800
BFF7F400
FFFFF000
FD7FE000
BC2FC000
740A0000
ENDCHAR
STARTCHAR ograve
ENCODING 242
SWIDTH 628 0
DWIDTH 13 0
BBX 12 20 0 -1
BITMAP
000900
002F80
002FE0
000BF4
0001FC
00007C
000000
0007C0
002FF0
00BFE0
02FFF0
0BF5F8
2FD0BC
3F003D
BD002E
BC01BE
BEAFFD
7FFFF4
1FFE40
015000
ENDCHAR
STARTCHAR oacute
ENCODING 243
SWIDTH 628 0
DWIDTH 13 0
BBX 12 20 0 -1
BITMAP
000060
0002F4
000BF8
002FD0
003F40
003900
000000
0007C0
002FF0
00BFE0
02FFF0
0BF5F8
2FD0BC
3F003D
BD002E
BC01BE
BEAFFD
7FFFF4
1FFE40
015000
ENDCHAR
STARTCHAR ocircumflex
ENCODING 244
SWIDTH 628 0
DWIDTH 13 0
BBX 13 20 0 -1
BITMAP
00004000
0007F400
001FFD00
007F7F40
007C1F40
00200500
00000000
0007C000
002FF000
00BFE000
02FFF000
0BF5F800
2FD0BC00
3F003D00
BD002E00
BC01BE00
BEAFFD00
7FFFF400
1FFE4000
01500000
ENDCHAR
STARTCHAR otilde
ENCODING 245
SWIDTH 628 0
DWIDTH 13 0
BBX 14 18 0 -1
BITMAP
000BE1A0
002FFBE0
007EFFC0
00646A00
00000000
0007C000
002FF000
00BFE000
02FFF000
0BF5F800
2FD0BC00
3F003D00
BD002E00
BC01BE00
BEAFFD00
7FFFF400
1FFE4000
01500000
ENDCHAR
STARTCHAR odieresis
ENCODING 246
SWIDTH 628 0
DWIDTH 13 0
BBX 13 18 0 -1
BITMAP
00180500
007E0FC0
007E0F80
00240500
00000000
0007C000
002FF000
00BFE000
02FFF000
0BF5F800
2FD0BC00
3F003D00
BD002E00
BC01BE00
BEAFFD00
7FFFF400
1FFE4000
01500000
ENDCHAR
STARTCHAR divide
ENCODING 247
SWIDTH 559 0
DWIDTH 11 0
BBX 11 13 0 -1
BITMAP
001400
007D00
007E00
007900
000000
6FFFD0
BFFFF4
7EAA50
004000
03F000
07F000
03E000
004000
ENDCHAR
STARTCHAR oslash
ENCODING 248
SWIDTH 632 0
DWIDTH 13 0
BBX 12 15 0 -3
BITMAP
0007DA
002FFE
00BFFE
02FFFC
0BFBF8
2FDBFC
3F6FBE
BD7E2E
BDFDBF
BFFFFE
7FFFF8
2FFF90
1F9000
1F4000
050000
ENDCHAR
STARTCHAR ugrave
ENCODING 249
SWIDTH 584 0
DWIDTH 12 0
BBX 11 19 1 0
BITMAP
018000
03F000
07FC00
01FE00
003F40
000B40
000000
000024
100078
78007C
BC00BC
BD00FC
FC02F8
FC07F4
FC2FE0
FEFF80
BFFE00
7FF800
1F9000
ENDCHAR
STARTCHAR uacute
ENCODING 250
SWIDTH 584 0
DWIDTH 12 0
BBX 11 18 1 0
BITMAP
0000A0
0002F4
000BF4
002FD0
007F40
003800
000024
100078
78007C
BC00BC
BD00FC
FC02F8
FC07F4
FC2FE0
FEFF80
BFFE00
7FF800
1F9000
ENDCHAR
STARTCHAR ucircumflex
ENCODING 251
SWIDTH 584 0
DWIDTH 12 0
BBX 11 19 1 0
BITMAP
000400
007F40
01FFD0
07F7F4
07D0F4
024020
000000
000024
100078
78007C
BC00BC
BD00FC
FC02F8
FC07F4
FC2FE0
FEFF80
BFFE00
7FF800
1F9000
ENDCHAR
STARTCHAR udieresis
ENCODING 252
SWIDTH 584 0
DWIDTH 12 0
BBX 11 17 1 0
BITMAP
018050
07E0FC
07E0F8
024050
000000
000024
100078
78007C
BC00BC
BD00FC
FC02F8
FC07F4
FC2FE0
FEFF80
BFFE00
7FF800
1F9000
ENDCHAR
STARTCHAR yacute
ENCODING 253
SWIDTH 400 0
DWIDTH 8 0
BBX 10 21 1 -1
BITMAP
000180
0007E0
001FE0
007F80
00FE00
00B400
000000
000000
A00B40
F82FC0
BC7F40
BDFE00
7FF800
3FF000
2FD000
2F8000
3F4000
BE0000
FC0000
F80000
600000
ENDCHAR
STARTCHAR thorn
ENCODING 254
SWIDTH 579 0
DWIDTH 12 0
BBX 12 13 0 0
BITMAP
010000
0B0000
0F4000
1FFF90
2FFFF8
2F95FD
3F01FE
7F1BFD
7FBFE4
7FFE40
7F9000
3E0000
2D0000
ENDCHAR
STARTCHAR ydieresis
ENCODING 255
SWIDTH 400 0
DWIDTH 8 0
BBX 10 19 1 -1
BITMAP
060190
0F83F0
1FC3F0
0A0080
000000
000000
A00B40
F82FC0
BC7F40
BDFE00
7FF800
3FF000
2FD000
2F8000
3F4000
BE0000
FC0000
F80000
600000
ENDCHAR
STARTCHAR dotlessi
ENCODING 305
SWIDTH 320 0
DWIDTH 6 0
BBX 5 13 1 -1
BITMAP
0900
1F00
2F00
3F40
3F00
7E00
BD00
BD00
BC00
BC00
BC00
7C00
1000
ENDCHAR
STARTCHAR Lslash
ENCODING 321
SWIDTH 632 0
DWIDTH 13 0
BBX 15 16 -2 -1
BITMAP
00140000
002F4000
003F8000
007F4000
00BF0000
00FF9000
06FFF400
BFFF8000
BFF80000
2FF40000
0BF00000
0BFAFF80
0BFFFFF0
07FFFFF4
02FE9550
00100000
ENDCHAR
STARTCHAR lslash
ENCODING 322
SWIDTH 533 0
DWIDTH 11 0
BBX 12 13 -2 -1
BITMAP
003900
007E00
00BD00
00FC00
01FF80
1BFF80
FFF800
BFE000
1BD150
0BFFFE
0BFFFF
03FEAA
005000
ENDCHAR
STARTCHAR OE
ENCODING 338
SWIDTH 1212 0
DWIDTH 24 0
BBX 25 16 0 -1
BITMAP
00006400001500
0002FD006BFF40
000BFE1BFFFF80
007FFE2FFFFE00
01FFFF2FFE4000
07FFAF5FD00000
0FF81FCFFFD000
2FE00BFFFFF400
3F8003FFFFE000
BF0003FFA54000
BE001FFE000000
BE56FFFE56B800
BFFFFFFFFFFD00
3FFFFEBFFFFC00
0BFF902FFF9000
00100000000000
ENDCHAR
STARTCHAR oe
ENCODING 339
SWIDTH 1010 0
DWIDTH 20 0
BBX 21 13 0 -1
BITMAP
0007C001AA00
002FF1BFFF80
00BFE3FFFE00
02FFF2FE4000
0BF5F9F95000
2FD0BEFFF400
3F003FFFF400
BD002FEA4000
BC01BFC00400
BEAFFFEAFD00
7FFFFFFFFE00
1FFE47FFE400
015000500000
ENDCHAR
STARTCHAR Scaron
ENCODING 352
SWIDTH 576 0
DWIDTH 12 0
BBX 14 23 0 -1
BITMAP
00100100
00780B00
00BE3F40
002FFD00
000BF400
00019000
00000000
00016900
006FFF80
07FFFFD0
3FFFFFE0
BFF40000
BFF90000
BFFF4000
1AFFC000
0007E000
0002F000
000BF000
01BFD000
2FFF8000
3FFD0000
2FE00000
04000000
ENDCHAR
STARTCHAR scaron
ENCODING 353
SWIDTH 463 0
DWIDTH 9 0
BBX 12 21 0 -1
BITMAP
010010
0780B0
0BE3F4
02FFD0
00BF40
001900
000000
000000
001BF4
06FFFC
7FFFFD
BFD000
BFF400
6FFD00
006F00
000B40
006F40
16FE00
3FF800
3F9000
140000
ENDCHAR
STARTCHAR Ydieresis
ENCODING 376
SWIDTH 493 0
DWIDTH 10 0
BBX 11 21 1 -1
BITMAP
018050
07E0FC
07E0F8
024050
000000
500060
F802F8
BD0BFC
BE1FF4
7E7FD0
7FFF40
3FFE00
2FFC00
0FF400
1FE000
2FD000
7F8000
BF0000
FE0000
FC0000
240000
ENDCHAR
STARTCHAR Zcaron
ENCODING 381
SWIDTH 664 0
DWIDTH 13 0
BBX 15 23 -1 -1
BITMAP
00004000
0002D07C
0003F5FC
0000FFF4
00002FD0
00000A00
00000000
00155440
00FFFFF0
00FFFFF8
00BFFFF8
00107FF4
0001FF80
000BFE00
007FF800
02FFD000
0BFE0000
2FF40100
3FD1AF90
7FFFFFD0
3FFFFF40
1FFFE400
06A40000
ENDCHAR
STARTCHAR zcaron
ENCODING 382
SWIDTH 547 0
DWIDTH 11 0
BBX 13 21 0 -1
BITMAP
00100100
00780B00
00BE3F40
002FFD00
000BF400
00019000
00000000
00000000
06EAA800
0BFFFD00
07FFFD00
000BF800
002FD000
01FF4000
0BFD0000
7FE00000
FF405000
FE6FF400
FFFFE000
BFFE4000
1A400000
ENDCHAR
STARTCHAR circumflex
ENCODING 710
SWIDTH 754 0
DWIDTH 15 0
BBX 9 6 4 10
BITMAP
005000
02F400
0FFE00
7F6F80
3D0B80
140200
ENDCHAR
STARTCHAR caron
ENCODING 711
SWIDTH 754 0
DWIDTH 15 0
BBX 9 6 4 10
BITMAP
100100
3D0B40
7F2F80
1FFE00
07F800
019000
ENDCHAR
STARTCHAR breve
ENCODING 728
SWIDTH 754 0
DWIDTH 15 0
BBX 9 5 4 11
BITMAP
100100
3C0B40
7FAF80
2FFF40
06E800
ENDCHAR
STARTCHAR dotaccent
ENCODING 729
SWIDTH 754 0
DWIDTH 15 0
BBX 4 4 7 11
BITMAP
14
BD
FD
64
ENDCHAR
STARTCHAR ring
ENCODING 730
SWIDTH 754 0
DWIDTH 15 0
BBX 6 7 6 10
BITMAP
0100
0780
2F80
BFD0
FAE0
FFD0
BE40
ENDCHAR
STARTCHAR ogonek
ENCODING 731
SWIDTH 754 0
DWIDTH 15 0
BBX 8 7 6 -6
BITMAP
6000
F000
F000
F400
7FFC
1FFD
0050
ENDCHAR
STARTCHAR tilde
ENCODING 732
SWIDTH 754 0
DWIDTH 15 0
BBX 10 4 4 11
BITMAP
1B92D0
7FFBD0
BEFF80
A46900
ENDCHAR
STARTCHAR hungarumlaut
ENCODING 733
SWIDTH 754 0
DWIDTH 15 0
BBX 12 6 3 9
BITMAP
009024
07F0FC
1FF7FD
7F9FF4
BE2F80
B41E00
ENDCHAR
STARTCHAR endash
ENCODING 8211
SWIDTH 588 0
DWIDTH 12 0
BBX 11 4 0 3
BITMAP
5AAA90
BFFFF4
7FFFA4
140000
ENDCHAR
STARTCHAR emdash
ENCODING 8212
SWIDTH 878 0
DWIDTH 18 0
BBX 17 3 0 4
BITMAP
6ABFFFA400
BFFFFFFF40
3FFAAAA900
ENDCHAR
STARTCHAR quoteleft
ENCODING 8216
SWIDTH 203 0
DWIDTH 4 0
BBX 5 6 2 9
BITMAP
2E00
7F40
BE00
FC00
F800
B400
ENDCHAR
STARTCHAR quoteright
ENCODING 8217
SWIDTH 199 0
DWIDTH 4 0
BBX 5 6 1 9
BITMAP
0B40
0FC0
1FC0
2F80
7F00
6D00
ENDCHAR
STARTCHAR quotesinglbase
ENCODING 8218
SWIDTH 204 0
DWIDTH 4 0
BBX 5 7 -2 -4
BITMAP
1900
2F40
3F40
7F00
BE00
FC00
1000
ENDCHAR
STARTCHAR quotedblleft
ENCODING 8220
SWIDTH 410 0
DWIDTH 8 0
BBX 9 7 2 8
BITMAP
3D2E40
BE7F40
FDBE00
FCFD00
F8F800
F4B400
100000
ENDCHAR
STARTCHAR quotedblright
ENCODING 8221
SWIDTH 425 0
DWIDTH 9 0
BBX 10 6 1 9
BITMAP
0B4790
0FCBE0
1FCFD0
2F9FC0
7F7F40
6D2D00
ENDCHAR
STARTCHAR quotedblbase
ENCODING 8222
SWIDTH 430 0
DWIDTH 9 0
BBX 9 7 -2 -4
BITMAP
190640
2F4FC0
3F5FC0
7F3F40
BEBE00
FCBD00
101000
ENDCHAR
STARTCHAR bullet
ENCODING 8226
SWIDTH 299 0
DWIDTH 6 0
BBX 5 4 0 4
BITMAP
2E00
7F80
7F80
3F40
ENDCHAR
STARTCHAR ellipsis
ENCODING 8230
SWIDTH 768 0
DWIDTH 15 0
BBX 15 4 -1 -1
BITMAP
2E0780E4
7F0FD2F8
7E0BC1F4
14010050
ENDCHAR
STARTCHAR perthousand
ENCODING 8240
SWIDTH 889 0
DWIDTH 18 0
BBX 17 14 1 0
BITMAP
0780070000
1FC01F0000
7FD07E0000
FAE1F80000
FFE7E00000
BE5F800000
007E000000
01F8500500
07E2E02F00
2F8BF0BF40
7E2EB5FB80
F83EFAEFC0
F43FF6FF80
A01A40A400
ENDCHAR
STARTCHAR guilsinglleft
ENCODING 8249
SWIDTH 322 0
DWIDTH 6 0
BBX 6 10 0 -1
BITMAP
0050
01E0
07E0
6F80
FE00
F800
BE00
2F80
07C0
0040
ENDCHAR
STARTCHAR guilsinglright
ENCODING 8250
SWIDTH 341 0
DWIDTH 7 0
BBX 7 10 -1 -1
BITMAP
1400
1E00
0FD0
07F0
01F8
07F8
1FD0
7E00
7800
1000
ENDCHAR
STARTCHAR fraction
ENCODING 8260
SWIDTH 541 0
DWIDTH 11 0
BBX 11 16 0 -1
BITMAP
000014
000078
0001F8
0003F4
000BD0
002F80
007E00
00FC00
03F400
0BD000
2F8000
7E0000
BC0000
BC0000
B80000
100000
ENDCHAR
STARTCHAR Euro
ENCODING 8364
SWIDTH 565 0
DWIDTH 11 0
BBX 12 12 -1 0
BITMAP
000078
0007FE
002FFD
00FFE4
02FE00
07F940
7FFFF4
3FFFE4
1BD400
03FFF8
00BFFD
001AA4
ENDCHAR
STARTCHAR Delta
ENCODING 8710
SWIDTH 403 0
DWIDTH 8 0
BBX 12 13 -1 -1
BITMAP
02BFF8
07FFFE
03FF94
002F00
003E00
007D00
00BC00
00F800
01F400
17F900
BFFF40
7FA900
100000
ENDCHAR
STARTCHAR minus
ENCODING 8722
SWIDTH 548 0
DWIDTH 11 0
BBX 10 4 0 3
BITMAP
5AAA80
FFFFF0
BFFEA0
100000
ENDCHAR
STARTCHAR approxequal
ENCODING 8776
SWIDTH 323 0
DWIDTH 6 0
BBX 6 15 0 0
BITMAP
0040
07C0
0BD0
0FE0
0FE0
1FD0
2FC0
2F80
3F80
3F40
3F40
7F40
3F40
2F40
1F00
ENDCHAR
STARTCHAR fi
ENCODING 64257
SWIDTH 810 0
DWIDTH 16 0
BBX 16 13 -1 -1
BITMAP
0006FE09
06FFFFAE
0FFFA53F
0FF4003F
03F0007E
03E140BD
3FFFE0BC
7FFFE0FC
2FE500FC
2F0000FC
2E0000BC
1E000078
00000010
ENDCHAR
STARTCHAR fl
ENCODING 64258
SWIDTH 1012 0
DWIDTH 20 0
BBX 21 13 -1 -1
BITMAP
0006FE2E0000
06FFFFAF4000
0FFFA57F0000
0FF4007E0000
03F000FD0000
03E141FC0000
3FFFE2F80000
7FFFE3F40000
2FE503F05400
2F0007FFFE40
2E0003FFFF80
1E0001FFAA40
000000500000
ENDCHAR
STARTCHAR .notdef
ENCODING -1
SWIDTH 370 0
DWIDTH 7 0
BBX 1 1 0 0
BITMAP
00
ENDCHAR
ENDFONT
